<?xml version="1.0" standalone="no"?>
<!DOCTYPE svg PUBLIC "-//W3C//DTD SVG 1.1//EN" "http://www.w3.org/Graphics/SVG/1.1/DTD/svg11.dtd" >
<svg xmlns="http://www.w3.org/2000/svg">
<metadata>
Created by FontForge 20120731 at Sun Oct  9 16:05:22 2016
 By admin
</metadata>
<defs>
<font id="iconfont" horiz-adv-x="1024" >
  <font-face 
    font-family="iconfont"
    font-weight="500"
    font-stretch="normal"
    units-per-em="1024"
    panose-1="2 0 6 3 0 0 0 0 0 0"
    ascent="896"
    descent="-128"
    x-height="792"
    bbox="0 -225 1293 896"
    underline-thickness="50"
    underline-position="-100"
    unicode-range="U+0078-E899"
  />
<missing-glyph horiz-adv-x="374" 
d="M34 0v682h272v-682h-272zM68 34h204v614h-204v-614z" />
    <glyph glyph-name=".notdef" horiz-adv-x="374" 
d="M34 0v682h272v-682h-272zM68 34h204v614h-204v-614z" />
    <glyph glyph-name=".null" horiz-adv-x="0" 
 />
    <glyph glyph-name="nonmarkingreturn" horiz-adv-x="341" 
 />
    <glyph glyph-name="x" unicode="x" horiz-adv-x="1001" 
d="M281 543q-27 -1 -53 -1h-83q-18 0 -36.5 -6t-32.5 -18.5t-23 -32t-9 -45.5v-76h912v41q0 16 -0.5 30t-0.5 18q0 13 -5 29t-17 29.5t-31.5 22.5t-49.5 9h-133v-97h-438v97zM955 310v-52q0 -23 0.5 -52t0.5 -58t-10.5 -47.5t-26 -30t-33 -16t-31.5 -4.5q-14 -1 -29.5 -0.5
t-29.5 0.5h-32l-45 128h-439l-44 -128h-29h-34q-20 0 -45 1q-25 0 -41 9.5t-25.5 23t-13.5 29.5t-4 30v167h911zM163 247q-12 0 -21 -8.5t-9 -21.5t9 -21.5t21 -8.5q13 0 22 8.5t9 21.5t-9 21.5t-22 8.5zM316 123q-8 -26 -14 -48q-5 -19 -10.5 -37t-7.5 -25t-3 -15t1 -14.5
t9.5 -10.5t21.5 -4h37h67h81h80h64h36q23 0 34 12t2 38q-5 13 -9.5 30.5t-9.5 34.5q-5 19 -11 39h-368zM336 498v228q0 11 2.5 23t10 21.5t20.5 15.5t34 6h188q31 0 51.5 -14.5t20.5 -52.5v-227h-327z" />
    <glyph glyph-name="uni343E" unicode="&#x343e;" horiz-adv-x="1000" 
d="M936 -24l-198 203q-1 1 -3.5 2.5t-3.5 2.5q66 93 66 207q0 98 -48 181t-131 131t-180.5 48t-180.5 -48t-131 -131t-48 -180.5t48 -180.5t131 -131t181 -48q121 0 218 74q0 -1 1 -2.5t2 -1.5l198 -204q17 -16 40 -16q22 0 39 15q16 16 16 39t-16 40zM133 391.5
q0 125.5 89.5 215t215.5 89.5t215 -89.5t89 -215t-89 -215t-215 -89.5t-215.5 89.5t-89.5 215z" />
    <glyph glyph-name="uniE600" unicode="&#xe600;" 
d="M512 -148q-91 0 -174 35q-80 34 -142 96t-96 143q-35 83 -35 174t35 174q34 80 96 142t142 96q83 35 174 35t174 -35q81 -34 143 -96t96 -142q35 -83 35 -174t-35 -174q-34 -81 -96 -143t-143 -96q-83 -35 -174 -35zM512 733q-88 0 -168 -34.5t-138 -92.5t-92.5 -138
t-34.5 -168t34.5 -168t92.5 -138t138 -92.5t168 -34.5t168 34.5t138 92.5t92.5 138t34.5 168t-34.5 168t-92.5 138t-138 92.5t-168 34.5zM367 520q10 0 17 -10l63 -90q13 -15 -5 -30l-58 -31l-3 -3q-2 -2 -4 -9t6 -17q12 -20 28 -42.5t51.5 -58.5t69.5 -54q7 -5 16 -5
q12 0 17 10l26 53q6 13 17 13q6 0 12 -5l88 -65q1 0 2 -1t3.5 -4.5t4 -7t0.5 -9t-5 -12.5q-16 -24 -55 -64q-13 -14 -37 -14q-14 0 -27 5q-98 35 -201 136q-26 29 -61.5 84t-47.5 95q-8 17 -7 38.5t15 34.5l56 55q8 8 19 8zM367 565v0q-29 0 -50 -22q-37 -37 -56 -54
q-26 -26 -28 -65q-1 -27 10 -55q14 -46 56 -111q33 -51 61 -83l1 -1l1 -1q71 -69 136 -108q37 -22 79 -37q2 0 3 -1q20 -7 41 -7q42 0 69 27q41 44 60 71q17 26 11 54q-6 25 -28 40q-68 51 -86 65h-1q-18 13 -38 13q-19 0 -34 -11t-23 -26v0q-7 -15 -14 -29q-53 34 -104 110
q21 12 32 19l3 1l2 2q23 19 26 46q2 25 -14 45q-39 54 -61 87l-1 1v1q-21 29 -53 29v0z" />
    <glyph glyph-name="uniE601" unicode="&#xe601;" 
d="M505 836l140 -284l313 -46l-227 -221l54 -312l-280 148l-281 -148l54 312l-227 221l313 46z" />
    <glyph glyph-name="uniE603" unicode="&#xe603;" 
d="M874.5 21.5q-72.5 -72.5 -166 -111t-196.5 -38.5t-196.5 38.5t-166 111.5t-111 166t-38.5 196t38.5 196.5t111.5 166t166 111t196 38.5t196.5 -38.5t166 -111.5t111 -166t38.5 -196t-38.5 -196.5t-111 -166zM836 708q-65 65 -148.5 99.5t-175.5 34.5t-175.5 -34.5
t-148.5 -99.5t-99.5 -148.5t-34.5 -175.5t34.5 -175.5t99.5 -148.5t148.5 -99.5t175.5 -34.5t175.5 34.5t148.5 99.5t99.5 148.5t34.5 175.5t-34.5 175.5t-99.5 148.5zM720 287l-2 -95q0 -7 -4.5 -11.5t-11.5 -4.5q-6 0 -10 5t-4 11l2 100q0 5 3 9q1 0 88 137q4 6 2 11
q-1 6 -11 10q-81 32 -146 55q-4 2 -7 6l-3 5q-4 5 -10 13t-14 18.5t-17 22.5t-17.5 24t-17.5 24t-16 22q-5 5 -12 6q-6 0 -10 -6q-60 -77 -98 -129q-2 -4 -7 -6q-106 -39 -145 -55q-9 -3 -11 -10t3 -16q54 -86 87 -132q2 -4 2 -9q0 -58 4 -161q1 -13 5 -16t16 0
q58 17 149 45q5 2 9 0q73 -24 148 -46q6 -2 9.5 -7.5t1.5 -11.5t-7.5 -9.5t-11.5 -1.5q-46 13 -145 45q-92 -29 -145 -44q-9 -3 -18 -3q-14 0 -24 8q-16 12 -17 39q-2 58 -4 158q-56 84 -84 129q-14 22 -7 43t29 30q50 19 142 53q63 85 95 127q13 17 34 17q22 0 36 -18
q30 -41 92 -126q94 -35 143 -54q23 -9 29 -29q6 -19 -6 -38q-21 -33 -86 -134z" />
    <glyph glyph-name="uniE604" unicode="&#xe604;" 
d="M693 -122q-66 0 -112.5 6.5t-65.5 13.5t-50 21q-23 11 -38 17t-49.5 14.5t-77.5 14.5v-27h-147q-39 0 -65 39q-22 33 -22 78v360q0 45 22 78q26 39 65 39h147v-20q153 51 259 133q61 47 91 94q29 47 23 89q-4 25 13 45q16 19 37 19q27 0 55 -15t45 -45q29 -51 14 -129
q-14 -74 -68 -171h134q43 0 66 -36q18 -27 18 -68q0 -65 -34 -104q1 -1 1 -3q12 -21 12 -53q0 -49 -22 -93q-14 -29 -33 -43q1 -6 1 -14q0 -44 -23 -89q-20 -43 -51 -56q-9 -42 -48 -68q-40 -27 -97 -27zM304 18q48 -6 86.5 -15.5t55 -16t42.5 -18.5q27 -13 44.5 -19
t58.5 -11.5t102 -5.5q37 0 65 16.5t28 46.5v27h27q9 0 19 15q15 21 22 53q7 28 3 37q3 -9 16 -9v54q10 0 23 26q17 33 17 70q0 18 -5 27q-2 3 -5 3v54q7 0 17 18q13 26 13 58q0 25 -9 39q-7 11 -21 11h-227l24 41q38 63 59.5 114.5t25.5 85t2 53.5t-10 33q-17 30 -51 33
q0 -1 -1 -2q19 -117 -134 -234q-120 -92 -291 -147zM153 478q-12 0 -22.5 -18.5t-10.5 -44.5v-360q0 -26 10.5 -44.5t22.5 -18.5h93v486h-93z" />
    <glyph glyph-name="uniE605" unicode="&#xe605;" 
d="M918 381q-4 12 -16 14l-257 37l-115 233q-6 11 -18 11t-18 -11l-115 -233l-257 -37q-12 -2 -16 -14t5 -21l186 -181l-44 -255q-2 -13 8 -20t21 -2l230 121l230 -121q4 -2 9 -2q7 0 12 4q10 7 8 20l-44 255l186 181q9 9 5 21zM691 201q-7 -8 -5 -18l38 -226l-203 107
q-4 2 -9 2t-9 -2l-203 -107l38 226q2 10 -5 18l-165 160l227 33q11 1 15 11l102 205l102 -205q4 -10 15 -11l227 -33z" />
    <glyph glyph-name="uniE608" unicode="&#xe608;" 
d="M772 -28q-8 0 -16 4l-233 123q-11 5 -22 0l-233 -123q-8 -4 -16 -4q-15 0 -25 12q-10 11 -7 27l44 260q2 12 -6 20l-189 185q-15 14 -9 33.5t27 22.5l261 38q12 2 17 12l117 237q9 19 30 19t30 -19l117 -237q5 -10 17 -12l261 -38q21 -3 27 -22.5t-9 -33.5l-189 -185
q-8 -8 -6 -20l44 -260q3 -16 -7 -27q-10 -12 -25 -12zM512 112q8 0 15 -4l234 -123q5 -3 11 -3q10 0 17 8t5 19l-44 260q-3 17 9 30l189 184q11 10 6.5 23.5t-18.5 15.5l-262 38q-17 2 -25 18l-117 237q-6 13 -20 13t-20 -13l-117 -237q-8 -16 -25 -18l-262 -38
q-14 -2 -18.5 -15.5t6.5 -23.5l189 -184q12 -13 9 -30l-44 -260q-2 -11 5 -19t17 -8q6 0 11 3l234 123q7 4 15 4z" />
    <glyph glyph-name="uniE609" unicode="&#xe609;" horiz-adv-x="1294" 
d="M181 350q-9 0 -15.5 6.5t-6.5 15.5t6.5 15t15.5 6h503q9 0 15 -6t6 -15t-6 -15.5t-15 -6.5h-503zM181 161q-9 0 -15.5 6.5t-6.5 15.5t6.5 15t15.5 6h323q9 0 15 -6t6 -15t-6 -15.5t-15 -6.5h-323zM852 350q-9 0 -15 6.5t-6 15.5t6 15t15 6h260q9 0 15.5 -6t6.5 -15
t-6.5 -15.5t-15.5 -6.5h-260zM1266 605v-65h-1238v65h1238zM1133 -128h-973q-66 0 -113 47t-47 113v704q0 66 47 113t113 47h973q66 0 113 -47t47 -113v-704q0 -66 -47 -113t-113 -47zM160 841q-43 0 -74 -30.5t-31 -74.5v-704q0 -44 31 -74.5t74 -30.5h973q44 0 74.5 30.5
t30.5 74.5v704q0 44 -30.5 74.5t-74.5 30.5h-973z" />
    <glyph glyph-name="uniE60C" unicode="&#xe60c;" horiz-adv-x="1040" 
d="M1011 206q7 2 10 8q3 4 3 9v1v75q1 6 -2.5 12t-10.5 8q-24 4 -38.5 23t-14.5 42t14.5 41.5t38.5 23.5q7 1 10 7q3 5 2 12q1 1 1 3v68v2q1 7 -2.5 13t-10.5 7q-24 5 -38.5 23t-14.5 41.5t14.5 42t38.5 23.5q7 2 10 8q3 4 3 10v2v50q0 7 -5 12t-12 5h-990q-7 0 -12 -5
t-5 -12v-52v-2q0 -5 3 -9q4 -6 11 -7q22 -6 37.5 -24t15.5 -41t-15.5 -42t-37.5 -24q-7 -1 -11 -7q-3 -5 -2 -10q-1 -2 -1 -4v-71v-2q0 -6 3 -11q4 -5 11 -7q22 -5 37.5 -23.5t15.5 -41.5t-15.5 -41.5t-37.5 -23.5q-7 -2 -11 -7q-2 -3 -3 -7v-4v-77v-3q1 -4 3 -7q4 -6 11 -7
q22 -5 37.5 -23.5t15.5 -41.5t-15.5 -41.5t-37.5 -24.5q-7 -1 -11 -7q-3 -4 -3 -9v-4v-48q0 -7 5 -12t12 -5h990q7 0 12 5t5 12v49q0 5 -1 9v1h-1v1q0 1 -1 2q-2 4 -5 6q-4 2 -9 2q-21 6 -34 23q-15 18 -15 41t14.5 42t38.5 23zM947 77q18 -21 43 -30v-23h-956v23
q26 9 44 30q22 28 22 64t-22 63q-18 22 -44 31v53q26 9 44 31q22 29 22 64t-22 64q-18 22 -44 30v54q26 9 44 31q22 27 22 63t-22 63q-18 23 -45 32v24h957v-24q-25 -9 -43 -30q-23 -28 -23 -64t23 -63q18 -22 43 -31v-53q-25 -9 -43 -31q-23 -29 -23 -64.5t23 -63.5
q18 -22 43 -31v-53q-25 -9 -43 -31q-23 -27 -23 -63t23 -65zM365 661h-53v-86h-55v-40h55v-130h-7q-35 -4 -55 -9v-48q36 6 62 13v-142q0 -24 -27 -24h-24v-40h42q62 0 62 58v166q7 2 20 8q18 9 27 14v35q-30 -10 -34 -11q-8 -2 -13 -4v114h47v40h-47v86zM710 199
q-42 3 -62 155q-2 27 -7 60h122v40h-124q-4 59 -4 132h9q55 0 108 14v42q-46 -18 -113 -18h-205v-453q50 20 92 39q0 -2 3 -6q9 -31 11 -47h51q-7 36 -27 80l13 11v44q-46 -33 -88 -48v170h99q22 -263 124 -254q60 -3 60 84h-33q2 -47 -29 -45zM489 454v132h88q2 -62 7 -132
h-95z" />
    <glyph glyph-name="uniE610" unicode="&#xe610;" 
d="M286 272q0 105 69.5 179.5t167.5 74.5t167 -74.5t69 -179.5t-69 -179.5t-167 -74.5t-167.5 74.5t-69.5 179.5zM514 638q-98 0 -180.5 -48t-130.5 -130.5t-48 -180.5t48 -180.5t130.5 -131t180.5 -48.5t180.5 48.5t130.5 131t48 180.5t-48 180.5t-130.5 130.5t-180.5 48z
M699 311l-71 -69l17 -98q4 -24 -8.5 -33.5t-34.5 2.5l-88 46l-88 -46q-22 -12 -34.5 -3t-8.5 34l17 98l-71 69q-18 17 -13 32t30 19l98 14l43 89q11 22 26.5 22t27.5 -22l43 -89l98 -14q25 -4 30 -18.5t-13 -32.5zM699 311zM850 846h-222q-20 0 -25 -20l-68 -135
q6 0 16.5 -1.5t40.5 -7.5t57.5 -15t61 -27t57.5 -41l103 206q5 7 5 15q0 11 -7.5 18.5t-18.5 7.5zM850 846zM490 691l-69 135q-5 20 -24 20h-223q-10 0 -17.5 -7.5t-7.5 -18.5q0 -8 5 -15l102 -206q24 23 57.5 41t62 27.5t57 15t41.5 7t16 1.5zM490 691z" />
    <glyph glyph-name="uniE612" unicode="&#xe612;" 
d="M530 -127q-5 -4 -11 -4t-11 4q-9 6 -22 17t-44 40.5t-60 60.5t-63 76t-58.5 89t-41 97t-16.5 102q0 130 92.5 222t223.5 92t223.5 -92t92.5 -222q0 -49 -16.5 -102t-41 -97t-58.5 -89t-63 -76t-60 -60.5t-44 -40.5t-22 -17zM519 632q-115 0 -197 -81.5t-82 -195.5
q0 -56 24.5 -118t57 -110t76.5 -97t70.5 -73.5t50.5 -44.5q24 20 50.5 44.5t70.5 73.5t76.5 97t57 110t24.5 118q0 114 -82 195.5t-197 81.5zM647 329q-2 -7 -8 -11.5t-13.5 -3t-12 7.5t-3.5 14q2 9 2 16q0 39 -27.5 66t-65.5 27t-65.5 -27t-27.5 -65.5t27.5 -65.5t65.5 -27
q7 0 17 1q7 2 13.5 -2.5t8 -12t-3 -14t-12.5 -7.5q-13 -3 -23 -3q-54 0 -92 38.5t-38 92t38 91.5t92 38t92 -38t38 -92q0 -10 -2 -23z" />
    <glyph glyph-name="uniE613" unicode="&#xe613;" 
d="M277 471h470q9 0 15 6t6 15t-6 15t-15 6h-470q-9 0 -15 -6t-6 -15t6 -15t15 -6zM277 343h470q9 0 15 6t6 15t-6 15t-15 6h-470q-9 0 -15 -6t-6 -15t6 -15t15 -6zM277 215h470q9 0 15 6t6 15t-6 15t-15 6h-470q-9 0 -15 -6t-6 -15t6 -15t15 -6zM277 87h470q9 0 15 6t6 15
t-6 15t-15 6h-470q-9 0 -15 -6t-6 -15t6 -15t15 -6zM347 734zM729 734zM832 769h-640q-26 0 -45 -18.5t-19 -45.5v-784q0 -27 19 -45.5t45 -18.5h393q60 -1 86 -22q5 -4 11 -4q8 0 14 6q4 6 3.5 13t-6.5 12q-36 29 -108 30h-393q-12 0 -20.5 8.5t-8.5 20.5v784
q0 12 8.5 20.5t20.5 8.5h155q33 -4 46 -33q2 -8 6 -17t18 -22t34 -16h1h172h2q19 3 33 16t18.5 22t6.5 17q12 29 45 33h103q12 0 20.5 -8.5t8.5 -20.5v-784q0 -12 -8.5 -20.5t-20.5 -8.5h-86q-7 0 -12 -5t-5 -12.5t5 -12.5t12 -5h86q26 0 45 18.5t19 45.5v784q0 27 -19 45.5
t-45 18.5zM651 714l-1 -2v-2q-1 -2 -2.5 -6.5t-9 -12.5t-17.5 -10h-166q-23 5 -28 29l-1 2v2q-5 11 -12 20h248q-7 -9 -11 -20z" />
    <glyph glyph-name="uniE616" unicode="&#xe616;" horiz-adv-x="1025" 
d="M796 832h-570l-162 -280v-112q5 -43 32 -77v-321q0 -46 32 -76t80 -30h606q47 0 74.5 29.5t27.5 76.5v321q30 35 43 77v112zM247 790h518l129 -235h-776zM808 -22h-604q-24 0 -44.5 20t-20.5 44v65h736v-59q0 -24 -21.5 -47t-45.5 -23zM875 149h-736v0v192
q12 -10 32 -15.5t33 -5.5q23 0 52 23t44 53q44 -76 98 -76q32 0 66.5 21.5t46.5 49.5q12 -28 42 -49.5t61 -21.5q30 0 59.5 24t46.5 57q23 -38 48.5 -59.5t61.5 -21.5q1 0 45 9v-180zM814 388q-34 0 -66 21t-32 43h-21q0 -22 -27.5 -43t-58.5 -21t-59 21t-28 43h-21
q0 -21 -34 -42.5t-66 -21.5q-34 0 -64.5 19t-30.5 45h-21q0 -22 -28.5 -43.5t-58.5 -21.5q-33 0 -59.5 18.5t-26.5 46.5v61h799v-61q-1 -27 -33 -45.5t-64 -18.5z" />
    <glyph glyph-name="uniE61A" unicode="&#xe61a;" 
d="M511 747q-91 0 -173.5 -35.5t-142.5 -95.5t-95 -142.5t-35 -173.5t35 -173.5t95 -142.5t142.5 -95.5t173.5 -35.5t174 35.5t142.5 95.5t95 142.5t35.5 173.5t-35.5 173.5t-95 142.5t-142.5 95.5t-174 35.5zM511 -82q-104 0 -192.5 51t-140 139.5t-51.5 192.5t51.5 192.5
t140 140t192.5 51.5t192.5 -51.5t139.5 -140t51 -192.5t-51 -192.5t-139.5 -139.5t-192.5 -51zM502 103q6 -6 6 -14.5t-6 -14.5t-14.5 -6t-14.5 6l-212 211q-6 6 -6 15t6 15t15 6t15 -6zM291 286q-6 -7 -15 -7t-15 7q-6 6 -6 14.5t6 14.5l212 211q6 7 14.5 7t14.5 -7
q6 -6 6 -14.5t-6 -14.5zM291 286zM738 328q11 0 19.5 -8t8.5 -20t-8.5 -20t-19.5 -8h-406q-12 0 -20.5 8t-8.5 20t8.5 20t20.5 8h406z" />
    <glyph glyph-name="uniE61B" unicode="&#xe61b;" 
d="M513 -225q-15 19 -39 50.5t-85.5 121t-108.5 167.5t-85.5 167.5t-38.5 144.5q0 96 47.5 177t130 128.5t179.5 47.5t179 -47.5t130 -128.5t48 -177q0 -55 -37 -142t-89 -172.5t-105 -163t-89 -125.5t-37 -48zM509 576q-63 0 -107.5 -44t-44.5 -106.5t44.5 -106.5
t107.5 -44t107.5 44t44.5 106.5t-44.5 106.5t-107.5 44z" />
    <glyph glyph-name="uniE61C" unicode="&#xe61c;" 
d="M860 821h-700q-40 0 -68.5 -28.5t-28.5 -68.5v-700q0 -42 21.5 -70t60.5 -28h700q42 0 77 29.5t35 68.5v700q0 40 -28 68.5t-69 28.5zM265 682q65 -57 117 -109l-43 -41q-48 55 -111 114zM333 124q-18 -15 -38 -36l-41 40q26 24 26 67v225h-94v49h146v-281q49 33 119 86
q6 -33 13 -57q-65 -43 -131 -93zM834 590h-146v-434q0 -88 -87 -89h-119q-4 24 -11 60q65 -6 113 -6t48 50v419h-213v49h415v-49z" />
    <glyph glyph-name="uniE623" unicode="&#xe623;" 
d="M512.5 784q-98.5 0 -188.5 -38.5t-154.5 -103t-103 -154.5t-38.5 -188.5t38.5 -188t103 -154t154 -103t188 -38.5t188.5 38.5t154.5 103t103 154t38.5 188t-38.5 188.5t-103 154.5t-154 103t-188 38.5zM512 -141q-90 0 -171.5 35t-140.5 94t-94 140.5t-35 171.5t35 171.5
t94 140.5t140.5 94t171.5 35t171.5 -35t140.5 -94t94 -140.5t35 -171.5t-35 -171.5t-94 -140.5t-140.5 -94t-171.5 -35zM606 30l-266 266l266 267l46 -46l-221 -221l221 -220z" />
    <glyph glyph-name="uniE627" unicode="&#xe627;" 
d="M793.5 710q-52.5 0 -90.5 -37.5t-38 -90.5q0 -10 3 -23l-394 -170q-38 39 -92 39q-53 0 -90.5 -37.5t-37.5 -90.5t37.5 -90.5t90.5 -37.5q32 0 63 17l289 -181q-8 -22 -8 -42q0 -53 37.5 -90.5t90.5 -37.5t90.5 37.5t37.5 90.5t-37.5 90.5t-90.5 37.5q-48 0 -84 -33
l-278 174q18 31 18 65q0 15 -5 33l390 168q39 -47 99 -47q52 0 90 37.5t38 90.5t-38 90.5t-90.5 37.5zM118 300q0 26 19 45t45 19t45 -19t19 -45t-19 -45t-45 -19t-45 19t-19 45zM654.5 30q26.5 0 45 -19t18.5 -45.5t-18.5 -45t-45 -18.5t-45.5 18.5t-19 45t19 45.5t45.5 19
zM793.5 518q-26.5 0 -45.5 18.5t-19 45t19 45.5t45.5 19t45 -19t18.5 -45.5t-18.5 -45t-45 -18.5z" />
    <glyph glyph-name="uniE62B" unicode="&#xe62b;" 
d="M536 809q-115 0 -212.5 -56.5t-154 -154.5t-56.5 -212q0 -26 3 -51l-31 -11q-15 -5 -18 -21q-3 -18 12 -30l89 -73q8 -7 18 -7q20 0 25 24l23 111q3 16 -7 28q-13 15 -31 8l-23 -8q-1 15 -1 30q0 98 48.5 182t133 133t183 49t182.5 -49t133 -133t49 -182.5t-49 -182.5
t-133 -133t-183 -49q-136 0 -239 90q-9 8 -21.5 7t-20.5 -10t-7 -21.5t10 -20.5q119 -104 278 -104q115 0 213 56.5t154.5 154.5t56.5 212.5t-56.5 212.5t-154.5 154.5t-213 56.5zM406 298q-12 0 -18 -5.5t-6 -19.5q0 -25 26 -25h100v-85q0 -17 5.5 -24t21.5 -7t21 7t5 24
v85h102q26 0 26 25t-26 25h-102v41h102q26 0 26 25t-26 25h-74l93 156q7 12 7 20.5t-10 15.5q-10 6 -20 6t-20 -16l-104 -176l-104 176q-9 15 -20.5 15t-19.5 -6t-8 -15.5t5 -19.5l93 -156h-75q-12 0 -18 -5.5t-6 -19.5q0 -25 26 -25h100v-41h-102z" />
    <glyph glyph-name="uniE630" unicode="&#xe630;" 
d="M190 622h70v-70h-70v70zM386 748h-322v-322h126v-56h70v56h126v70h56v56h-56v196zM316 496h-182v182h182v-182zM190 48h70v-70h-70v70zM764 622h70v-70h-70v70zM512 306v-76h70v70h56v70h-56v56h-70v-56v-64zM512 50v-72h70v72v54h56v70h-58h-68v-60v-64zM582 -22h56v-56
h-56v56zM442 -78v-70h74h66v70h-66h-74zM708 104h-70v-54v-72h70h56v70h-56v56zM764 -148h72h64h60v70h-60h-66v56h-70v-56v-70zM960 300v70h-60h-66v-70h66h60zM890 48h70v-70h-70v70zM442 496h70v-70h-70v70zM764 370v56h196v322h-322v-70h-58h-68v-56h68h58v-70h-56v-56
h56v-70h70v-56h56zM708 678h182v-182h-182v182zM708 230h56v-56h-56v56zM834 104h-70v-56h72h54v66v60h70v56h-60h-66v-52v-74zM442 622h70v-70h-70v70zM260 300h56v-70h-56v70zM442 370h-54h-72v-70h70v-70h56v76v64zM386 -22v126h56v70h-54h-198v68v58h-58h-68v-70h70v-56
h-70v-322h322v70h56v56h-56zM316 -78h-182v182h182v-182zM442 230h70v-56h-70v56zM638 300h70v-70h-70v70zM764 300h70v-70h-70v70z" />
    <glyph glyph-name="uniE633" unicode="&#xe633;" 
d="M768 440q-37 0 -63.5 27t-26.5 64t26.5 63.5t63.5 26.5t63.5 -26.5t26.5 -63.5t-26.5 -64t-63.5 -27zM768 587q-23 0 -39.5 -16.5t-16.5 -39.5t16.5 -40t39.5 -17t39.5 17t16.5 40t-16.5 39.5t-39.5 16.5zM676 331q-7 0 -12 5l-166 166q-22 23 -29 47.5t-3 40.5t14 26
l1 2l110 92q5 5 12 4.5t11 -6.5q5 -5 4.5 -12.5t-5.5 -11.5l-108 -90q-20 -30 19 -68l165 -166q12 -12 0 -24q-7 -5 -13 -5zM328 275q-9 0 -14 7q-4 5 -3.5 12.5t5.5 10.5l201 166q5 4 12.5 3.5t11.5 -5.5t3.5 -12.5t-5.5 -11.5l-201 -165q-3 -5 -10 -5zM732 181
q-47 0 -83 26l-2 1q-58 56 -115 53q-22 -1 -42 -9.5t-29 -16.5l-9 -8l-1 -2q-28 -20 -56.5 -30t-50 -9.5t-40 5t-27.5 9t-11 7.5q-1 0 -2.5 1.5t-2.5 3t-2 1.5q-5 10 -47.5 35.5t-90.5 48.5q-6 2 -8.5 9t0 13t9 8.5t13.5 0.5q128 -62 152 -94q8 -4 19 -7t30.5 -5.5t44 5.5
t47.5 26q7 6 17.5 14t35.5 18.5t51 11.5q72 3 139 -61q7 -5 18.5 -9.5t32 -9t45 4t45.5 31.5q60 59 104 59q18 0 18 -17q0 -7 -5 -12t-13 -5q-18 0 -41 -16.5t-37 -32.5q-46 -48 -106 -48zM732 51q-47 0 -83 26l-2 2q-58 55 -115 52q-22 0 -42 -8.5t-29 -17.5l-9 -8l-1 -1
q-28 -21 -56.5 -30.5t-50 -9.5t-40 5t-27.5 9.5t-11 6.5q-1 1 -2.5 2t-2.5 2.5t-2 2.5q-5 10 -47.5 35.5t-90.5 47.5q-6 3 -8.5 9.5t0 13t9 9t13.5 -0.5q128 -61 152 -94q8 -4 19 -7t30.5 -5t44 5.5t47.5 25.5q7 7 17.5 14.5t35.5 18t51 11.5q72 3 139 -61q7 -5 18.5 -9.5
t32 -9t45 4t45.5 31.5q60 60 104 60q18 0 18 -17.5t-18 -17.5t-41 -16.5t-37 -32.5q-48 -48 -106 -48z" />
    <glyph glyph-name="uniE637" unicode="&#xe637;" 
d="M512 -64q-91 0 -174 36t-143 96t-95.5 142.5t-35.5 173.5t35.5 174t95.5 143t143 95.5t173.5 35.5t173.5 -35.5t143 -95.5t95.5 -143t35.5 -174q0 -136 -76 -251q-12 -15 -27 -4q-15 12 -4 27q69 104 69 228q0 111 -54.5 205.5t-149 149.5t-206 55t-205.5 -55
t-149 -149.5t-55 -205.5t55 -205.5t149 -149.5t206 -55q145 0 255 90q14 11 27 -2q10 -14 -3 -27q-58 -47 -131 -73t-148 -26zM512 -64zM720 491q10 0 17 7.5t7 17.5t-7 17t-17 7h-114l111 111q7 8 7 18t-7 17t-17.5 7t-17.5 -7l-146 -146h-49l-146 146q-7 7 -17 7t-17.5 -7
t-7.5 -17t8 -18l110 -111h-114q-10 0 -17 -7t-7 -17t7 -17.5t17 -7.5h184v-92h-184q-10 0 -17 -7t-7 -17q0 -11 7 -18t17 -7h184v-251q0 -10 7 -17t17.5 -7t17.5 7t7 17v251h184q10 0 17 7t7 18q0 10 -7 17t-17 7h-184v92h184z" />
    <glyph glyph-name="uniE638" unicode="&#xe638;" 
d="M849 888h-674q-67 0 -114.5 -47.5t-47.5 -114.5v-684q0 -67 47.5 -114.5t114.5 -47.5h674q67 0 114.5 47.5t47.5 114.5v684q0 67 -47.5 114.5t-114.5 47.5zM855 120q0 -44 -18 -64t-64 -20h-523q-47 0 -63 20q-17 20 -17 64v523q0 44 15.5 63.5t61.5 19.5h526
q46 0 64 -19.5t18 -63.5v-523zM764 636q-6 6 -22 6h-468q-10 0 -15 -5t-5 -18v-468q0 -32 27 -32h469q10 0 15 8q6 9 6 24v469q0 10 -7 16zM732 458q-13 -8 -35 -8h-55v-204q3 -54 -22 -82q-25 -27 -73 -27h-29q-14 1 -24 2q-15 2 -24 4q-15 3 -25 6q-28 7 -35 23t2 38
q8 18 23 22q17 5 36 -1q25 -6 38 -8q12 -1 23 -1q9 0 14 5q6 4 6 25v140q-44 -58 -93 -101t-102 -75q-30 -17 -51 -16q-20 2 -31 20q-26 46 32 73q43 21 91 60q48 40 95 97h-165q-45 0 -45 41q0 22 10 34q11 11 35 11h224v36q0 21 12.5 32t32.5 11q45 0 45 -47v-32h55
q24 0 36 -9t12 -36q0 -25 -13 -33z" />
    <glyph glyph-name="uniE63D" unicode="&#xe63d;" 
d="M561 56h-359q-12 0 -21.5 9t-9.5 22v626q0 13 9.5 22t21.5 9h407v-187q0 -13 9 -22t22 -9h156v-176q32 -3 63 -15v253q0 12 -9 22l-188 188q-3 3 -10 7q-7 3 -12 3h-438q-38 0 -66 -28t-28 -67v-626q0 -38 27.5 -66t66.5 -28h392q-21 28 -33 63zM672 700l112 -112h-112
v112zM578 244h-313q-13 0 -22 -9.5t-9 -22t9 -22t22 -9.5h291q9 33 26 63h-4zM265 369h313q13 0 22 9t9 22t-9 22t-22 9h-313q-13 0 -22 -9t-9 -22t9 -22t22 -9zM265 557h188q13 0 22 9t9 21.5t-9 22t-22 9.5h-188q-13 0 -22 -9t-9 -22t9 -22t22 -9zM774.5 327
q-82.5 0 -141.5 -59t-59 -141.5t59 -141.5t141.5 -59t141.5 59t59 142t-59 141.5t-141.5 58.5zM775 -45q-71 0 -121.5 50.5t-50.5 121.5t50.5 121t121.5 50t121 -50t50 -121t-50 -121.5t-121 -50.5zM846 127h-71v100q0 6 -4.5 10t-10.5 4t-10 -4t-4 -10v-115q0 -6 4 -10
t10 -4h86q6 0 10.5 4t4 10t-4.5 10.5t-10 4.5z" />
    <glyph glyph-name="uniE640" unicode="&#xe640;" horiz-adv-x="1025" 
d="M767.5 477q-38.5 0 -65.5 -27.5t-27 -66t27 -65.5t65.5 -27t66 27t27.5 65.5t-27.5 66t-66 27.5zM768 337q-19 0 -33 14t-14 33t14 32.5t33 13.5t32.5 -13.5t13.5 -32.5t-13.5 -33t-32.5 -14zM1024 244v280v186q0 67 -48 115t-115 48h-698q-67 0 -115 -48t-48 -115v-652
q0 -67 48 -115t115 -48h698q67 0 115 48t48 115v186zM977 58q0 -48 -34 -82t-82 -34h-698q-48 0 -82 34t-34 82v652q0 48 34 82t82 34h698q48 0 82 -34t34 -82v-140h-256q-77 0 -131.5 -54.5t-54.5 -131.5t54.5 -131.5t131.5 -54.5h256v-140zM721 244q-57 0 -98 41t-41 99
t41 99t98 41h257v-280h-257z" />
    <glyph glyph-name="uniE647" unicode="&#xe647;" 
d="M851 77h-681q-13 0 -18 12.5t6 22.5q29 25 49.5 76t24.5 106v111q0 143 68 220q72 80 211.5 80t211.5 -80q69 -77 69 -220v-111q3 -56 23 -106.5t49 -75.5q10 -9 5.5 -22t-18.5 -13zM214 116h593q-21 30 -39 97t-16 81v111q0 130 -60.5 195t-180.5 65q-240 0 -240 -260
v-113q-3 -61 -26 -118q-12 -31 -31 -58zM521 -15q-33 0 -56.5 23.5t-23.5 56.5q0 14 5 27q3 8 10.5 11.5t15 0.5t11 -10.5t1.5 -14.5q-3 -7 -3 -14q0 -16 12 -28t28.5 -12t28 12t11.5 28q0 7 -2 14q-3 7 0.5 14.5t11.5 10.5t15.5 -0.5t10.5 -11.5q4 -13 4 -27
q0 -33 -23.5 -56.5t-56.5 -23.5zM552 674q-8 0 -14 5.5t-6 14.5v31q0 9 -6 14.5t-14.5 5.5t-14 -5.5t-5.5 -14.5v-31q0 -9 -6 -14.5t-14.5 -5.5t-14.5 5.5t-6 14.5v31q0 25 18 42.5t43 17.5t43 -17.5t18 -42.5v-31q0 -9 -6.5 -14.5t-14.5 -5.5z" />
    <glyph glyph-name="uniE648" unicode="&#xe648;" 
d="M992 13q-21 53 -70 183q-40 107 -49 128q-24 55 -109 55q-22 0 -82 -5l-21 -2q-35 -3 -53 -20.5t-17 -39.5q1 -21 19.5 -36.5t51.5 -15.5h11q17 2 51 5q31 4 40 4h2q2 -5 4 -13q18 -57 59 -198q-83 -6 -341 -24l26 173l-160 131l-3 -4l22 114l37 -93l150 -64l15 34
l-135 58l-57 141l-5 13l-129 -5l-120 -127l27 -25l110 115l78 3l-60 -305l-170 -60l13 -35l191 67l26 133l130 -106l-25 -161q-297 -21 -340 -25q-53 -4 -77 -39.5t-20 -73.5l3 -33h35q807 -6 844 -6q43 0 68.5 6t40.5 27q10 15 11.5 35t-4 40.5t-18.5 50.5zM894 -109
q-36 0 -246.5 1.5t-405 3t-192.5 1.5q1 0 0 6.5t2.5 17t8.5 20.5t18.5 18.5t32.5 10.5q31 2 222.5 16t367.5 26l176 13q-49 170 -71 242q-7 23 -15.5 31t-27.5 8q-9 0 -21.5 -1.5t-34 -3.5t-39.5 -4h-7q-21 0 -29.5 8.5t0 18t31.5 11.5q83 7 100 7q31 0 48.5 -7.5
t25.5 -25.5q9 -20 53 -138t66 -171q15 -38 19 -59t-5.5 -32.5t-26 -14.5t-50.5 -3zM451 536q42 0 72 29t30 69.5t-30 69.5t-72 29t-71.5 -29t-29.5 -69.5t29.5 -69.5t71.5 -29zM451 696q26 0 44.5 -18t18.5 -43.5t-18.5 -43.5t-44.5 -18t-44.5 18t-18.5 43.5t18.5 43.5
t44.5 18zM127 98z" />
    <glyph glyph-name="uniE649" unicode="&#xe649;" 
d="M64 385q2 188 132 317q140 140 340 131q173 -7 295 -130q140 -140 132 -338q-8 -185 -144 -311t-323 -119q-185 7 -312 144q-118 127 -120 306zM520 763q-156 -2 -263 -102q-114 -106 -121 -259q-7 -160 103 -277q106 -112 260 -118q158 -7 274 103q112 106 118 259
q7 158 -101 273q-111 118 -270 121zM549 302v-111q1 -14 -10 -25t-25 -11q-13 1 -22.5 8.5t-12.5 19.5q-1 7 -1 13q-1 105 -1 211q0 29 22 38q18 7 34 -2.5t16 -28.5v-112zM575 577q1 -22 -16.5 -39.5t-42.5 -15.5q-21 1 -37 17.5t-16 40.5q1 21 18 38t41 15q22 -1 38 -17
t15 -39z" />
    <glyph glyph-name="uniE64D" unicode="&#xe64d;" 
d="M804 515h-532q-11 0 -18 7.5t-7 17.5v192q0 10 7 17.5t18 7.5h533q10 0 17 -8l98 -97q7 -7 7 -17.5t-7 -17.5l-98 -95q-8 -7 -18 -7zM296 565h498l73 70l-72 72h-499v-142zM752 229h-532q-10 0 -18 7l-98 95q-7 7 -7 17.5t7 17.5l98 97q7 8 17 8h533q11 0 18 -7.5
t7 -17.5v-192q0 -10 -7 -17.5t-18 -7.5zM230 279h498v142h-499l-72 -72zM508 707q-10 0 -17.5 7.5t-7.5 17.5v76q0 10 7.5 17t17.5 7t17.5 -7t7.5 -17v-76q0 -10 -7.5 -17.5t-17.5 -7.5zM508 421q-10 0 -17.5 7.5t-7.5 17.5v76q0 10 7.5 17t17.5 7t17.5 -7t7.5 -17v-76
q0 -10 -7.5 -17.5t-17.5 -7.5zM508 -61q-10 0 -17.5 7t-7.5 18v290q0 10 7.5 17.5t17.5 7.5t17.5 -7.5t7.5 -17.5v-290q0 -11 -7.5 -18t-17.5 -7z" />
    <glyph glyph-name="uniE64E" unicode="&#xe64e;" horiz-adv-x="1195" 
d="M1131 34h-1067q-7 0 -14 6.5t-7 14.5v133q0 41 30 71.5t72 30.5h900q42 0 72.5 -30.5t30.5 -71.5v-133q3 -8 -3.5 -14.5t-13.5 -6.5zM85 77h1024v111q0 25 -17 42t-42 17h-901q-25 0 -42 -17t-17 -42v-111h-5zM1075 239q-15 0 -21 13l-107 303h-704l-102 -299
q-3 -9 -11.5 -12.5t-14.5 -0.5q-9 3 -12.5 11.5t-0.5 14.5l111 320q0 13 17 13h734q15 0 22 -13l111 -320q6 -19 -13 -26q-5 -4 -9 -4zM1024 -47h-51q-10 0 -16 6t-6 15v52q0 9 6 15t16 6h51q10 0 15.5 -6t5.5 -15v-52q0 -9 -5.5 -15t-15.5 -6zM222 -47h-51q-10 0 -16 6
t-6 15v52q0 9 6 15t16 6h51q9 0 15 -6t6 -15v-52q0 -9 -6 -15t-15 -6zM969 559h-743q-9 0 -15 6t-6 15v214q0 9 6 15t15 6h743q9 0 15 -6t6 -15v-214q0 -9 -6 -15t-15 -6zM247 602h700v170h-700v-170z" />
    <glyph glyph-name="uniE660" unicode="&#xe660;" 
d="M961 484l-310 45l-138 281l-139 -281l-309 -45l224 -219l-53 -308l277 145l276 -145l-53 308zM513 171v502l98 -200l219 -32l-159 -155l38 -219z" />
    <glyph glyph-name="uniE661" unicode="&#xe661;" 
d="M1012 789v-23q-25 0 -53.5 -5.5t-37.5 -14.5q-21 -21 -48 -92l-267 -674l-171 -1l-295 661q-35 78 -60.5 102t-67.5 24v23h461v-23q-84 0 -102.5 -8t-18.5 -36q0 -17 20 -62t29 -67l181 -405l177 440q7 22 16 47q7 26 7 36q0 33 -23 44q-11 5 -47.5 8t-62.5 3v23h363z
" />
    <glyph glyph-name="uniE66C" unicode="&#xe66c;" 
d="M954 601q-89 88 -202.5 135.5t-238 47.5t-238.5 -47.5t-202 -135.5q-6 -7 -6 -15.5t6 -14.5t14.5 -6t14.5 6q83 83 189 127t222.5 44t222.5 -44t189 -127q6 -6 14.5 -6t14.5 6t6 14.5t-6 15.5zM514.5 593q-180.5 0 -327.5 -148q-6 -6 -6 -14.5t6 -14.5t14.5 -6t14.5 6
q135 135 298.5 135t298.5 -135q6 -6 14.5 -6t15 6t6.5 14.5t-6 14.5q-148 148 -328.5 148zM514.5 394q-111.5 0 -207.5 -96q-6 -6 -6 -14.5t6 -15t14.5 -6.5t14.5 6q84 84 178.5 84t178.5 -84q6 -6 14.5 -6t14.5 6.5t6 15t-6 14.5q-96 96 -207.5 96zM513.5 192
q-40.5 0 -69.5 -29t-29 -69.5t29 -69.5t69.5 -29t69.5 29t29 69.5t-29 69.5t-69.5 29zM513.5 36q-23.5 0 -40.5 17t-17 40.5t17 40.5t40.5 17t40.5 -17t17 -40.5t-17 -40.5t-40.5 -17z" />
    <glyph glyph-name="uniE66E" unicode="&#xe66e;" 
d="M307 40q-15 0 -26 8q-23 18 -17 57l32 183l-133 129q-29 28 -20 56t49 34l183 26l83 166q17 36 46.5 36t46.5 -36l83 -166l183 -26q40 -6 49 -34t-20 -56l-139 -136q-6 -5 -13 -5t-12 5.5t-5 12.5t5 13l139 136q13 12 11 19t-20 10l-202 29l-90 183q-9 17 -16 17t-15 -17
l-90 -183l-202 -29q-18 -3 -20 -10t11 -19l146 -143l-35 -201q-3 -18 3 -22t22 4l181 95l180 -95q16 -8 22 -4t3 22q-14 75 -16 91q-2 7 2.5 13t11.5 7.5t13 -3t8 -11.5q1 -7 5 -29.5t8 -42.5l3 -19q6 -39 -17.5 -56.5t-58.5 1.5l-165 86l-164 -86q-18 -10 -33 -10z" />
    <glyph glyph-name="uniE678" unicode="&#xe678;" 
d="M361 17h-17q-22 0 -37.5 15.5t-15.5 37.5v628q0 22 15.5 37.5t37.5 15.5h209q94 0 160 -66.5t66 -160t-66 -160t-160 -66.5h-87q-23 0 -33.5 -6.5t-10.5 -25.5v-196q0 -22 -19 -37.5t-42 -15.5zM358 67q22 0 22 33v196q0 44 45 43l128 -2q78 0 131.5 53.5t53.5 133
t-53.5 132.5t-131.5 53h-170q-22 0 -36 -13.5t-14 -35.5l1 -560q0 -33 24 -33zM434 385q-22 0 -37.5 15.5t-15.5 37.5v168q0 22 15.5 37.5t37.5 15.5h114q57 0 97 -40t40 -96.5t-40 -96.5t-97 -40h-114v-1zM468 430h71q38 0 65 27t27 65.5t-27 65.5t-65 27h-71
q-20 0 -34.5 -14.5t-14.5 -34.5v-87q0 -21 14.5 -35t34.5 -14z" />
    <glyph glyph-name="uniE681" unicode="&#xe681;" 
d="M92 221h-18q-15 0 -26 10.5t-11 25.5v512q0 15 11 26.5t26 11.5h730q15 0 27 -11.5t12 -26.5v-55q0 -18 16 -18q7 0 12.5 5t5.5 13v55q0 29 -21.5 49t-51.5 20h-730q-30 0 -48 -19.5t-18 -49.5v-511q0 -49 32 -65q5 -7 16 -7l36 -2q8 0 13 5.5t5 13t-5 13t-13 5.5z
M950 656h-730q-30 0 -49.5 -20t-19.5 -50v-511q0 -30 19.5 -49.5t49.5 -19.5h231q5 -6 5 -7l86 -88q17 -18 42 -18t43 18l86 89q2 2 5 6h232q30 0 47.5 19t17.5 50v511q0 31 -17.5 50.5t-47.5 19.5zM986 75q0 -15 -10.5 -27.5t-25.5 -12.5h-248l-33 -33l-64 -64
q-9 -9 -20.5 -9t-20.5 9l-64 64l-31 33h-249q-15 0 -27.5 12.5t-12.5 27.5v511q0 15 12.5 27.5t27.5 12.5h730q15 0 25.5 -12.5t10.5 -27.5v-511zM366 367q-15 0 -26 -10.5t-11 -26t11 -26t26 -10.5t25.5 10.5t10.5 26t-10.5 26t-25.5 10.5zM804 367q-15 0 -26 -10.5
t-11 -26t11 -26t26 -10.5t25.5 10.5t10.5 26t-10.5 26t-25.5 10.5zM585 367q-15 0 -25.5 -10.5t-10.5 -26t10.5 -26t25.5 -10.5t25.5 10.5t10.5 26t-10.5 26t-25.5 10.5zM585 367z" />
    <glyph glyph-name="uniE69D" unicode="&#xe69d;" 
d="M977 401q-4 87 -38 167.5t-98 144.5q-62 61 -142 96.5t-170 39.5h-34q-120 -5 -221 -65.5t-161.5 -161.5t-65.5 -221v-16v-1v0v-1v-16q5 -120 65.5 -221t161.5 -161.5t221 -65.5h16h1v0h1h16q90 4 170 39.5t142 96.5q64 64 98 144.5t38 167.5v34zM495 -47
q-111 4 -204.5 60t-149.5 149.5t-60 204.5h133q6 -114 86.5 -194.5t194.5 -86.5v-133zM495 119q-100 6 -171 77t-77 171h134q6 -45 37.5 -77t76.5 -37v-134zM495 286q-31 5 -53.5 27.5t-27.5 53.5h81v-81zM495 401h-81q5 31 27.5 53.5t53.5 27.5v-81zM495 515
q-45 -5 -76.5 -37t-37.5 -77h-134q7 105 85 178q12 -5 25 -5q26 0 45.5 17.5t22.5 43.5q34 12 70 14v-134zM495 682q-37 -2 -74 -14q-8 20 -25.5 32t-38.5 12q-29 0 -49 -20.5t-20 -48.5q0 -25 16 -44q-84 -82 -90 -198h-133q4 111 60 204.5t149.5 149.5t204.5 60v-133z
M548 121q-12 -2 -19 -2v134q45 5 77 37l93 -93q-15 -15 -28 -25q-21 28 -55 28q-28 0 -48.5 -20.5t-20.5 -48.5q0 -3 1 -10zM582 314q-22 -23 -53 -28v81zM529 815q83 -3 157 -36t131 -90l-94 -94q-80 81 -194 87v133zM529 649q100 -6 171 -77l-94 -94q-32 32 -77 37v134z
M582 454l-53 -53v81q31 -5 53 -28zM529 -47v133q15 1 32 3q21 -27 55 -27q29 0 49 20t20 49q0 2 -1 9q19 13 39 33l94 -94q-57 -57 -131 -90t-157 -36zM529 -47z" />
    <glyph glyph-name="uniE69E" unicode="&#xe69e;" 
d="M859 719q19 0 37 -17.5t18 -35.5v-581q0 -17 -17 -26.5t-38 -9.5h-715q-18 0 -26 8.5t-8 27.5v581q0 21 8.5 36.5t25.5 15.5h725zM859 763h-715q-35 0 -57 -29t-22 -68v-581q0 -37 21 -59t58 -22h715q39 0 69.5 23t30.5 58v581q0 37 -31.5 67t-68.5 30zM65 607h849v-44
h-849v44zM65 429h849v-45h-849v45zM155 183h223v-45h-223v45zM423 183h178v-45h-178v45z" />
    <glyph glyph-name="uniE6A6" unicode="&#xe6a6;" 
d="M644 -105q-25 0 -41 18q-16 17 -42.5 35t-48.5 18q-23 0 -49.5 -18t-41.5 -34q-16 -18 -41 -18q-11 0 -21 5h-1l-107 60l-1 1q-14 10 -19 27.5t2 33.5q10 23 10 43q0 47 -33 80t-80 33h-4q-14 0 -24 11t-13 30q-10 48 -10 85t10 85q3 19 13.5 30t23.5 10h4q47 0 80 33.5
t33 79.5q0 21 -10 44q-7 16 -2 33.5t19 27.5l2 1l112 62h1q10 4 21 4q25 0 41 -16q15 -17 41 -34t48 -17t47.5 17t41.5 33t40 16q12 0 21 -4l2 -1l108 -60l1 -1q15 -10 20 -27.5t-2 -33.5q-10 -23 -10 -44q0 -46 33 -79.5t80 -33.5h3q14 1 24.5 -10t13.5 -30q9 -48 9 -85
t-9 -85q-3 -19 -13.5 -30t-24.5 -11h-3q-47 0 -80 -33t-33 -80q0 -20 10 -43q7 -16 2 -33.5t-20 -27.5l-1 -1l-110 -61l-1 -1q-10 -4 -21 -4zM641 -53q1 -1 3 -1l103 57q-13 33 -13 63q0 66 45 113.5t110 50.5q8 45 8 75t-8 75q-65 3 -110 50.5t-45 112.5q0 31 13 64
l-101 56h-1q-2 0 -3 -1q-16 -16 -38 -32q-47 -33 -88 -33t-89 34q-22 16 -37 32q-2 1 -4 1h-1l-105 -57q14 -33 14 -64q0 -65 -45 -112.5t-110 -50.5q-8 -45 -8 -75t8 -75q65 -3 110 -50.5t45 -113.5q0 -30 -14 -63l100 -55h3q16 18 38 34q49 35 91 35t90 -36q23 -16 39 -34
zM512 155q-62 0 -106 44t-44 106.5t44 106.5t106 44t106 -44t44 -106.5t-44 -106.5t-106 -44zM512 405q-41 0 -70 -29t-29 -70.5t29 -70.5t70 -29t70 29t29 70.5t-29 70.5t-70 29z" />
    <glyph glyph-name="uniE730" unicode="&#xe730;" 
d="M655 -116h-30v339q0 10 -8 17t-18 7h-173q-10 0 -18 -7t-8 -17v-339h-30v339q0 22 16.5 38.5t39.5 16.5h173q23 0 39.5 -16.5t16.5 -38.5v-339zM860 -147h-696v470h31v-439h634v439h31v-470zM95 288l-22 21l439 439l438 -438l-22 -22l-416 417z" />
    <glyph glyph-name="uniE899" unicode="&#xe899;" 
d="M512 832q-91 0 -174 -35.5t-143 -95.5t-95.5 -143t-35.5 -174t35.5 -174t95.5 -143t143 -95.5t174 -35.5t174 35.5t143 95.5t95.5 143t35.5 174t-35.5 174t-95.5 143t-143 95.5t-174 35.5zM512 -14q-108 0 -200 53t-145 145t-53 200t53 200t145 145t200 53t200 -53
t145 -145t53 -200t-53 -200t-145 -145t-200 -53zM614 290q-8 1 -13 6q-3 4 -4 9q20 17 35 61q7 19 9 21l1 1q18 18 27 44q12 35 -3 61q6 21 8 40q3 26 0 47q-6 42 -35 78q-25 34 -56 31q-13 21 -46 28q-16 3 -45 3q-51 -2 -84 -27q-35 -25 -49 -72l-1 -2q-11 -35 -11 -73
q0 -30 8 -56q-13 -25 -1 -58q8 -25 27 -44v0l1 -1q1 -2 8 -21q16 -44 36 -62q-1 -5 -3 -8q-5 -5 -13 -6q-22 -2 -49 -14t-47 -33q-37 -40 -37 -96q0 -10 6 -16.5t14.5 -6.5t15 6.5t6.5 16.5q0 37 24 62q30 32 70 35q24 3 39 20q16 18 16 51q0 14 -11 20q-14 10 -28 48
q-10 29 -20 38v1q-11 12 -17 26q-2 12 -1.5 15t4 9t4.5 12q1 7 -2 14q-8 21 -8 49q-1 28 8 57l1 2q10 33 32 49q24 18 63 19q24 1 37 -2q16 -3 20 -10l1 -2q6 -9 15 -14q10 -5 21 -3q8 2 21 -14q21 -28 24 -55q3 -15 1 -35q-2 -18 -9 -41q-4 -15 5 -27q7 -8 1 -23
q-5 -15 -16 -26v-1v1q-9 -9 -20 -39q-13 -37 -29 -47q-13 -13 -8.5 -37t15.5 -35q15 -17 38 -20q41 -3 71 -35q24 -26 24 -62q0 -10 6 -16.5t14.5 -6.5t15 6.5t6.5 16.5q0 56 -37 96q-21 21 -47.5 33t-48.5 14z" />
  </font>
</defs>
</svg>
